<svg xmlns="http://www.w3.org/2000/svg" width="142.4993" height="65.4863" viewBox="0 0 142.4993 65.4863"><defs><style>.a{fill:#231f20;}</style></defs><title>markdown-logo</title><path class="a" d="M78.1206,83.0273h7.1275l6.0761,31.5489h-5.92l-1.1684-6.9336H79.25l-1.2075,6.9336H72.0054ZM83.6123,103.67,81.7036,90.9731,79.834,103.67Z" transform="translate(-18.7175 -83.0273)"/><path class="a" d="M94.5181,83.0273h8.1792q5.1021,0,7.6728,1.87t2.5708,6.4653a12.15,12.15,0,0,1-.8569,4.9663,5.72,5.72,0,0,1-3.0381,2.8628l4.3623,15.3848h-6.5825l-3.583-14.2945h-2.3369v14.2945H94.5181Zm8.2959,13.4375a3.9173,3.9173,0,0,0,3.1743-1.11,5.4391,5.4391,0,0,0,.9155-3.4863,5.7426,5.7426,0,0,0-.8178-3.4273,3.49,3.49,0,0,0-2.96-1.0908h-2.22v9.1142Z" transform="translate(-18.7175 -83.0273)"/><path class="a" d="M117.2251,83.0273h6.3877V96.3481l5.7256-13.3208H135.57l-5.92,14.1778,6.3877,17.3711h-6.5049l-4.8686-14.1-1.0513,1.7138v12.3858h-6.3877Z" transform="translate(-18.7175 -83.0273)"/><path class="a" d="M111.8669,118.7754q2.1576,2.6294,2.1576,7.7314V138.27q0,5.1021-2.1576,7.6729t-7.22,2.5713q-5.0226,0-7.2-2.59T95.2683,138.27V126.4688q0-5.064,2.1782-7.6934t7.2-2.6289Q109.7085,116.1465,111.8669,118.7754Zm-9.4368,3.0771a6.78,6.78,0,0,0-.57,3.0577v14.9179a6.53,6.53,0,0,0,.57,3.0186,2.83,2.83,0,0,0,4.4331,0,6.5309,6.5309,0,0,0,.5687-3.0186V124.91a6.9661,6.9661,0,0,0-.549-3.0772,2.8038,2.8038,0,0,0-4.4528.02Z" transform="translate(-18.7175 -83.0273)"/><path class="a" d="M92.2086,148.124H86.7543l-2.2368-19.28L81.7313,148.085H77.3759l-2.9033-19.1631L72.2354,148.124H66.86l4.0809-31.5488h5.533l3.0607,19.9805,2.9427-19.9805h5.6112Z" transform="translate(-18.7175 -83.0273)"/><path class="a" d="M63.3288,148.124H58.816l-7.0629-16.3974V148.124H46.3775V116.5752h4.3554l7.0629,17.4492V116.5752h5.533Z" transform="translate(-18.7175 -83.0273)"/><path class="a" d="M132.61,133.4033l-3.0074-1.6164v11.8186H128.229a5.201,5.201,0,0,1-2.4723-.4473,2.178,2.178,0,0,1-1.039-1.3633,10.76,10.76,0,0,1-.2558-2.707V126.04a14.9726,14.9726,0,0,1,.2164-2.9218,2.3392,2.3392,0,0,1,1.0193-1.5381,4.6477,4.6477,0,0,1,2.493-.5254h1.4118v10.4418L132.61,129.88l3.4279-1.8424V116.5752h-7.9258a14.5008,14.5008,0,0,0-6.1607,1.0713,6.2789,6.2789,0,0,0-3.1787,3.2715,15.0216,15.0216,0,0,0-.9416,5.8232v11.4893a14.0713,14.0713,0,0,0,.9612,5.6865,6.2275,6.2275,0,0,0,3.2181,3.1748,15.39,15.39,0,0,0,6.2582,1.0322h7.7693V135.2457Z" transform="translate(-18.7175 -83.0273)"/><polygon class="a" points="142.062 11.788 136.203 11.788 117.32 11.788 117.32 17.111 136.203 17.111 136.203 45.574 129.057 45.574 129.057 40.973 114.839 48.614 129.057 56.256 129.057 51.869 136.203 51.869 139.351 51.869 142.499 51.869 142.499 11.788 142.062 11.788"/><polygon class="a" points="49.627 0 43.045 0 38.916 19.902 35.021 0 28.205 0 27.991 12.413 29.607 13.282 32.733 14.962 32.84 10.01 37.008 31.549 40.98 31.549 45.031 10.127 45.537 31.549 50.211 31.549 49.627 0"/><polygon class="a" points="29.607 16.805 27.899 17.723 27.66 31.549 32.372 31.549 32.729 15.127 29.607 16.805"/><polygon class="a" points="6.296 18.084 14.443 18.084 14.443 22.685 28.66 15.043 14.443 7.402 14.443 11.788 6.296 11.788 3.148 11.788 0 11.788 0 51.869 0.438 51.869 6.296 51.869 25.179 51.869 25.179 46.546 6.296 46.546 6.296 18.084"/></svg>